<svg xmlns="http://www.w3.org/2000/svg" viewBox="0 0 360 460" width="360" height="460">
  <defs>
    <radialGradient id="portraitGlow" cx="50%" cy="26%" r="70%">
      <stop offset="0" stop-color="#f9d9d1"/>
      <stop offset=".48" stop-color="#be8692"/>
      <stop offset="1" stop-color="#34263b"/>
    </radialGradient>
    <linearGradient id="portraitDress" x1="0" y1="0" x2="1" y2="1">
      <stop stop-color="#a6536c"/>
      <stop offset=".55" stop-color="#4a294c"/>
      <stop offset="1" stop-color="#1e1831"/>
    </linearGradient>
    <filter id="portraitBlur">
      <feGaussianBlur stdDeviation="18"/>
    </filter>
  </defs>
  <rect width="360" height="460" rx="32" fill="#e9ded8"/>
  <circle cx="185" cy="145" r="126" fill="url(#portraitGlow)" opacity=".32" filter="url(#portraitBlur)"/>
  <path d="M116 170c3-79 35-124 74-124 50 0 82 50 74 134-7-29-20-53-36-72-21 42-57 63-112 62Z" fill="#2a2030"/>
  <ellipse cx="188" cy="168" rx="65" ry="82" fill="#d6a18f"/>
  <path d="M129 151c13-71 44-94 77-91 37 4 59 39 58 89-22-16-36-40-42-68-15 37-49 61-93 70Z" fill="#302332"/>
  <path d="M164 200c15 7 31 7 46 0" fill="none" stroke="#754752" stroke-width="3" stroke-linecap="round"/>
  <path d="M94 455c7-127 42-188 94-188 57 0 90 61 99 188Z" fill="url(#portraitDress)"/>
  <circle cx="163" cy="174" r="4" fill="#382b34"/>
  <circle cx="213" cy="174" r="4" fill="#382b34"/>
  <path d="M151 162c9-6 18-6 26-1M201 161c9-5 18-4 25 2" fill="none" stroke="#4c3138" stroke-width="4" stroke-linecap="round"/>
  <path d="M106 390c27-24 52-21 73 8 26-37 53-39 84-9" fill="none" stroke="#f2b7c5" stroke-opacity=".34" stroke-width="18"/>
</svg>
