<svg xmlns="http://www.w3.org/2000/svg" viewBox="0 0 360 460" width="360" height="460">
  <defs>
    <style>
      .mainJewelHalo {
        animation: jewelHaloPulse 4.8s ease-in-out infinite;
        transform-box: fill-box;
        transform-origin: center;
      }
      .mainJewelSparkle {
        animation: jewelSparklePulse 4.2s ease-in-out infinite;
        filter: drop-shadow(0 0 4px rgba(255, 244, 188, 1));
        transform-box: fill-box;
        transform-origin: center;
      }
      .mainJewelSparkleSecondary {
        animation: jewelSecondarySparklePulse 4.2s ease-in-out infinite;
        filter: drop-shadow(0 0 3.5px rgba(238, 250, 255, .95));
        transform-box: fill-box;
        transform-origin: center;
      }
      @keyframes jewelHaloPulse {
        0%, 100% { opacity: .34; transform: scale(.96); }
        50% { opacity: .52; transform: scale(1.04); }
      }
      @keyframes jewelSparklePulse {
        0%, 38%, 84%, 100% { opacity: 0; transform: scale(1) rotate(-8deg); }
        44% { opacity: .55; transform: scale(1.4) rotate(-3deg); }
        52% { opacity: 1; transform: scale(1.98) rotate(0); }
        66% { opacity: .78; transform: scale(1.51) rotate(3deg); }
      }
      @keyframes jewelSecondarySparklePulse {
        0%, 42%, 86%, 100% { opacity: 0; transform: scale(1.05) rotate(-7deg); }
        48% { opacity: .5; transform: scale(1.35) rotate(-3deg); }
        56% { opacity: .95; transform: scale(1.8) rotate(0); }
        70% { opacity: .68; transform: scale(1.39) rotate(3deg); }
      }
      @media (prefers-reduced-motion: reduce) {
        .mainJewelHalo,
        .mainJewelSparkle,
        .mainJewelSparkleSecondary {
          animation: none;
        }
        .mainJewelSparkle {
          opacity: 1;
          transform: scale(1.5);
        }
        .mainJewelSparkleSecondary {
          opacity: .78;
          transform: scale(1.4);
        }
      }
    </style>
    <radialGradient id="portraitGlow" cx="50%" cy="26%" r="70%">
      <stop offset="0" stop-color="#f9d9d1"/>
      <stop offset=".48" stop-color="#be8692"/>
      <stop offset="1" stop-color="#34263b"/>
    </radialGradient>
    <linearGradient id="portraitDress" x1="0" y1="0" x2="1" y2="1">
      <stop stop-color="#a6536c"/>
      <stop offset=".55" stop-color="#4a294c"/>
      <stop offset="1" stop-color="#1e1831"/>
    </linearGradient>
    <linearGradient id="lipGloss" x1="0" y1="0" x2="0" y2="1">
      <stop stop-color="#e78aa4"/>
      <stop offset=".48" stop-color="#c64f6a"/>
      <stop offset="1" stop-color="#9f3556"/>
    </linearGradient>
    <linearGradient id="dressSheen" x1="0" y1="0" x2="1" y2="1">
      <stop stop-color="#fff" stop-opacity=".34"/>
      <stop offset=".42" stop-color="#fff" stop-opacity="0"/>
      <stop offset="1" stop-color="#6f3155" stop-opacity=".16"/>
    </linearGradient>
    <pattern id="hearts" width="30" height="27" patternUnits="userSpaceOnUse">
      <rect width="30" height="27" fill="#ef86aa"/>
      <path d="M15 20C7 15 7 8 11 7c3-1 4 2 4 3 1-2 3-4 6-3 5 2 4 8-6 13Z" fill="#ffc5d9" opacity=".58"/>
    </pattern>
    <linearGradient id="gold" x1="0" x2="1">
      <stop stop-color="#8e6b2d"/>
      <stop offset=".48" stop-color="#fff0aa"/>
      <stop offset="1" stop-color="#9a7332"/>
    </linearGradient>
    <radialGradient id="diamond">
      <stop stop-color="#fff"/>
      <stop offset=".35" stop-color="#e7f7ff"/>
      <stop offset="1" stop-color="#a9c9d5"/>
    </radialGradient>
    <radialGradient id="mainJewelHalo">
      <stop stop-color="#f9feff" stop-opacity=".62"/>
      <stop offset=".36" stop-color="#ccefff" stop-opacity=".3"/>
      <stop offset=".7" stop-color="#fff0aa" stop-opacity=".12"/>
      <stop offset="1" stop-color="#fff0aa" stop-opacity="0"/>
    </radialGradient>
    <filter id="portraitBlur">
      <feGaussianBlur stdDeviation="18"/>
    </filter>
    <filter id="crownShadow">
      <feDropShadow dx="0" dy="4" stdDeviation="5" flood-opacity=".24"/>
    </filter>
    <filter id="mainJewelGlow" x="-100%" y="-80%" width="300%" height="260%">
      <feDropShadow dx="0" dy="0" stdDeviation="4.5" flood-color="#d8f5ff" flood-opacity=".7"/>
    </filter>
    <clipPath id="neckOnly">
      <rect x="116" y="252" width="144" height="86"/>
    </clipPath>
  </defs>

  <rect width="360" height="460" rx="32" fill="#e9ded8"/>
  <circle cx="185" cy="145" r="126" fill="url(#portraitGlow)" opacity=".32" filter="url(#portraitBlur)"/>
  <path d="M116 170c3-79 35-124 74-124 50 0 82 50 74 134-7-29-20-53-36-72-21 42-57 63-112 62Z" fill="#2a2030"/>
  <ellipse cx="188" cy="168" rx="65" ry="82" fill="#d6a18f"/>
  <path d="M129 151c13-71 44-94 77-91 37 4 59 39 58 89-22-16-36-40-42-68-15 37-49 61-93 70Z" fill="#302332"/>
  <circle cx="163" cy="174" r="4" fill="#382b34"/>
  <circle cx="213" cy="174" r="4" fill="#382b34"/>
  <path d="M151 162c9-6 18-6 26-1M201 161c9-5 18-4 25 2" fill="none" stroke="#4c3138" stroke-width="4" stroke-linecap="round"/>

  <path d="M158 200c9-8 20-7 29-3 10-5 22-5 31 3-8 9-19 13-30 13s-22-4-30-13Z" fill="url(#lipGloss)"/>

  <path d="M94 455c7-127 42-188 94-188 57 0 90 61 99 188Z" fill="url(#portraitDress)" clip-path="url(#neckOnly)"/>

  <g transform="translate(9.4 0) scale(.95 1)">
    <path d="M133 279C145 293 162 302 188 302C214 301 231 292 243 279C266 277 284 290 293 311C301 329 298 347 275 358L271 353C286 384 296 418 304 455H72C80 418 91 384 105 353L101 358C78 347 75 329 83 311C92 290 111 277 133 279Z" fill="url(#hearts)"/>
    <path d="M133 279C145 293 162 302 188 302C214 301 231 292 243 279C266 277 284 290 293 311C301 329 298 347 275 358L271 353C286 384 296 418 304 455H72C80 418 91 384 105 353L101 358C78 347 75 329 83 311C92 290 111 277 133 279Z" fill="url(#dressSheen)" opacity=".54"/>
  </g>

  <g transform="translate(120.8 10.25) scale(.4521 .477)">
    <ellipse class="mainJewelHalo" cx="160" cy="48" rx="38" ry="43" fill="url(#mainJewelHalo)" opacity=".34"/>
    <g fill="none" stroke="url(#gold)" stroke-width="7" stroke-linecap="round" stroke-linejoin="round" filter="url(#crownShadow)">
      <path d="M42 141c34-14 61-20 118-20s84 6 118 20"/>
      <path d="M52 132 85 76l29 45 46-92 46 92 29-45 33 56"/>
      <path d="M85 76c16 7 25 4 29-14 8 22 24 21 46-33 22 54 38 55 46 33 4 18 13 21 29 14"/>
    </g>
    <path d="M160 22c-19 18-21 35 0 52 21-17 19-34 0-52Z" fill="url(#diamond)" stroke="#d7b867" stroke-width="3" filter="url(#mainJewelGlow)"/>
    <path d="M150 39c3-6 8-10 13-11" fill="none" stroke="#fff" stroke-width="2.5" stroke-linecap="round" opacity=".72"/>
    <path class="mainJewelSparkle" d="M189 24c0 5-2 8-6 9 4 1 6 4 6 9 0-5 2-8 6-9-4-1-6-4-6-9Z" fill="#fff0a6" opacity="0"/>
    <path class="mainJewelSparkleSecondary" d="M132 38c0 3.2-1.3 5.3-4 6 2.7.7 4 2.8 4 6 0-3.2 1.3-5.3 4-6-2.7-.7-4-2.8-4-6Z" fill="#ddf8ff" opacity="0" style="animation-delay:-1.4s"/>
    <path class="mainJewelSparkleSecondary" d="M198 44c0 2.3-1 3.8-3 4 2 .4 3 1.9 3 4 0-2.1 1-3.6 3-4-2-.2-3-1.7-3-4Z" fill="#ffe38a" opacity="0" style="animation-delay:-3.1s"/>
    <g fill="url(#diamond)" stroke="#d7b867" stroke-width="3">
      <circle cx="84" cy="74" r="9"/>
      <circle cx="114" cy="61" r="8"/>
      <circle cx="206" cy="61" r="8"/>
      <circle cx="236" cy="74" r="9"/>
      <circle cx="49" cy="132" r="6"/>
      <circle cx="270" cy="132" r="6"/>
    </g>
  </g>
</svg>
