<svg xmlns="http://www.w3.org/2000/svg" viewBox="0 0 64 64">
  <defs>
    <linearGradient id="bg" x1="0" y1="0" x2="1" y2="1">
      <stop stop-color="#765067"/>
      <stop offset="1" stop-color="#2b202e"/>
    </linearGradient>
  </defs>
  <rect width="64" height="64" rx="18" fill="url(#bg)"/>
  <rect x="2" y="2" width="60" height="60" rx="16" fill="none" stroke="#f3d7d0" stroke-opacity=".35" stroke-width="2"/>
  <path d="M20 46 27 17h12c7 0 11 3 10 9-1 5-5 8-11 9l7 11h-8l-6-11-3 11Zm9-17h6c4 0 6-1 7-4 0-2-2-3-5-3h-6Z" fill="#f7e7df"/>
  <path d="M45 13c1 4 3 6 7 7-4 1-6 3-7 7-1-4-3-6-7-7 4-1 6-3 7-7Z" fill="#d9adbb"/>
</svg>
