<svg xmlns="http://www.w3.org/2000/svg" viewBox="0 0 64 64">
  <defs>
    <filter id="wandShadow" x="-30%" y="-30%" width="160%" height="160%">
      <feDropShadow dx="0" dy="2" stdDeviation="1.6" flood-color="#3d0533" flood-opacity=".16"/>
    </filter>
  </defs>
  <rect width="64" height="64" rx="17" fill="#fffaf2"/>
  <rect x="2" y="2" width="60" height="60" rx="15" fill="none" stroke="#3d0533" stroke-opacity=".09" stroke-width="2"/>
  <g
    transform="translate(7 7) scale(2.08)"
    fill="none"
    stroke="#ff3d93"
    stroke-width="2"
    stroke-linecap="round"
    stroke-linejoin="round"
    filter="url(#wandShadow)"
  >
    <path d="m21.64 3.64-1.28-1.28a1.21 1.21 0 0 0-1.72 0L2.36 18.64a1.21 1.21 0 0 0 0 1.72l1.28 1.28a1.2 1.2 0 0 0 1.72 0L21.64 5.36a1.2 1.2 0 0 0 0-1.72"/>
    <path d="m14 7 3 3"/>
    <path d="M5 6v4"/>
    <path d="M19 14v4"/>
    <path d="M10 2v2"/>
    <path d="M7 8H3"/>
    <path d="M21 16h-4"/>
    <path d="M11 3H9"/>
  </g>
</svg>
